<svg width="24" height="24" viewBox="0 0 24 24" fill="none" xmlns="http://www.w3.org/2000/svg">
<path d="M7 18C7 18.5523 6.55228 19 6 19C5.44772 19 5 18.5523 5 18C5 17.4477 5.44772 17 6 17C6.55228 17 7 17.4477 7 18ZM17 18C17 18.5523 16.5523 19 16 19C15.4477 19 15 18.5523 15 18C15 17.4477 15.4477 17 16 17C16.5523 17 17 17.4477 17 18Z" stroke="#000000" stroke-width="2" stroke-linecap="round" stroke-linejoin="round"/>
<path d="M1 1H4L7.68 14.39C7.77144 14.7504 7.9796 15.0782 8.27206 15.3055C8.56452 15.5329 8.92882 15.6453 9.30006 15.63H16.29C16.6612 15.6453 17.0255 15.5329 17.318 15.3055C17.6104 15.0782 17.8186 14.7504 17.91 14.39L21 3H5" stroke="#000000" stroke-width="2" stroke-linecap="round" stroke-linejoin="round"/>
<path d="M12 9V6M12 6V3M12 6H9M12 6H15" stroke="#000000" stroke-width="2" stroke-linecap="round" stroke-linejoin="round"/>
</svg>